<?xml version="1.0" standalone="no"?>
<!DOCTYPE svg PUBLIC "-//W3C//DTD SVG 20010904//EN"
 "http://www.w3.org/TR/2001/REC-SVG-20010904/DTD/svg10.dtd">
<svg version="1.0" xmlns="http://www.w3.org/2000/svg"
 width="488.000000pt" height="339.000000pt" viewBox="0 0 488.000000 339.000000"
 preserveAspectRatio="xMidYMid meet">

<g transform="translate(0.000000,339.000000) scale(0.100000,-0.100000)"
fill="#000000" stroke="none">
<path d="M1884 3362 c-40 -32 -44 -54 -44 -252 0 -240 12 -270 105 -270 92 0
105 34 105 268 0 191 -7 231 -45 256 -32 21 -95 20 -121 -2z"/>
<path d="M2741 3359 c-36 -34 -41 -62 -41 -250 0 -191 9 -237 48 -258 29 -16
94 -14 118 4 40 27 45 61 42 269 l-3 198 -33 29 c-40 36 -97 40 -131 8z"/>
<path d="M2210 2997 c0 -129 -18 -184 -80 -247 -76 -75 -159 -95 -268 -64 -41
12 -68 29 -102 63 -59 59 -80 118 -80 223 0 78 0 79 -22 72 -73 -22 -166 -116
-212 -213 l-31 -66 0 -650 0 -650 33 -68 c60 -124 173 -212 302 -237 31 -6
285 -10 634 -10 634 0 650 1 746 57 56 33 135 113 161 164 51 101 50 83 47
761 l-3 633 -26 59 c-42 94 -144 197 -216 220 -23 7 -23 6 -23 -72 0 -105 -21
-164 -80 -223 -103 -103 -261 -104 -365 -4 -64 62 -77 100 -84 230 l-6 110
-162 3 -163 2 0 -93z m930 -1080 c0 -407 -3 -429 -68 -494 -66 -66 -43 -64
-696 -65 -418 0 -599 3 -619 11 -49 19 -95 61 -116 105 -20 40 -21 60 -21 424
l0 382 760 0 760 0 0 -363z"/>
<path d="M2280 2177 c-258 -73 -333 -432 -127 -601 75 -61 130 -81 227 -81 76
0 92 3 152 33 74 36 129 91 168 168 21 42 25 63 25 144 0 85 -3 101 -29 153
-35 68 -109 140 -173 169 -57 25 -180 33 -243 15z m213 -78 c71 -37 112 -75
142 -136 42 -85 41 -157 -3 -246 -50 -102 -140 -157 -254 -157 -145 1 -264
111 -276 256 -9 119 55 230 163 280 67 32 168 33 228 3z"/>
<path d="M2337 2028 c-15 -8 -17 -27 -17 -133 l0 -125 124 0 c100 0 128 3 140
16 19 19 20 25 3 48 -11 15 -29 19 -98 20 l-84 1 -5 84 c-4 73 -8 85 -26 91
-11 5 -28 4 -37 -2z"/>
<path d="M10 520 l0 -70 39 0 c36 0 40 3 43 28 3 25 7 27 56 30 l52 3 -2 -198
-3 -197 -25 -6 c-20 -5 -25 -12 -25 -35 0 -18 5 -30 13 -29 6 1 55 2 107 3
l95 1 0 30 c0 25 -4 30 -24 30 -22 0 -25 5 -31 52 -3 29 -5 118 -3 198 l3 145
51 3 c50 3 51 2 57 -28 6 -27 10 -30 42 -30 l35 0 0 70 0 70 -240 0 -240 0 0
-70z"/>
<path d="M729 563 c-25 -63 -132 -371 -141 -406 -7 -26 -19 -42 -35 -48 -19
-7 -24 -15 -21 -37 2 -15 6 -26 11 -24 4 1 43 2 87 2 l80 0 0 30 c0 23 -5 30
-19 30 -17 0 -18 4 -9 40 l10 40 93 0 93 0 11 -31 c14 -42 14 -49 -4 -49 -10
0 -15 -10 -15 -32 l0 -33 83 0 82 1 3 32 c3 26 0 32 -16 32 -12 0 -22 11 -29
32 -6 18 -41 119 -78 223 -36 105 -69 198 -72 208 -4 13 -16 17 -54 17 -45 0
-51 -3 -60 -27z m90 -181 c13 -42 26 -85 28 -94 5 -16 -3 -18 -61 -18 -36 0
-66 2 -66 3 0 2 13 44 30 93 16 49 30 90 30 92 0 1 3 2 8 2 4 0 18 -35 31 -78z"/>
<path d="M1189 566 c-58 -31 -81 -65 -81 -122 0 -76 48 -122 163 -157 81 -25
123 -56 127 -94 6 -63 -87 -94 -173 -59 -27 11 -35 21 -35 40 0 44 -10 56 -46
56 l-34 0 0 -64 0 -65 58 -28 c48 -24 69 -28 137 -28 66 0 87 4 121 23 131 76
82 238 -86 282 -103 27 -148 67 -130 114 12 34 39 46 99 46 64 0 101 -14 101
-39 0 -39 11 -51 47 -51 l34 0 -3 57 -3 58 -50 24 c-75 37 -184 40 -246 7z"/>
<path d="M1560 556 c0 -28 4 -35 23 -38 22 -3 22 -3 22 -203 0 -200 0 -200
-22 -203 -19 -3 -23 -10 -23 -38 l0 -35 103 4 102 3 3 31 c3 28 0 32 -25 35
-28 3 -28 4 -31 81 l-3 77 38 0 c36 0 40 -4 90 -78 47 -70 50 -78 32 -84 -12
-5 -19 -17 -19 -33 l0 -25 105 0 105 0 0 29 c0 25 -5 30 -26 33 -21 2 -42 25
-96 103 -38 55 -72 106 -75 112 -3 7 26 53 63 103 57 76 72 90 96 90 25 0 28
3 28 35 l0 35 -105 0 -105 0 0 -35 c0 -24 5 -35 15 -35 8 0 15 -2 15 -5 0 -3
-23 -37 -51 -75 -43 -59 -55 -70 -80 -70 l-30 0 3 73 c3 70 4 72 31 75 24 3
27 8 27 38 l0 34 -105 0 -105 0 0 -34z"/>
<path d="M2435 568 c-88 -45 -130 -109 -141 -215 -18 -167 73 -295 218 -310
67 -7 123 8 176 47 40 29 42 32 42 85 l0 55 -35 0 c-30 0 -35 -4 -41 -28 -12
-55 -15 -61 -46 -71 -47 -17 -109 -13 -144 8 -48 29 -69 82 -69 176 0 133 47
195 148 195 66 0 107 -22 107 -59 0 -34 21 -54 52 -49 20 3 23 10 26 52 4 58
-11 79 -83 112 -65 31 -153 32 -210 2z"/>
<path d="M2794 577 c-10 -28 0 -51 26 -57 l25 -6 0 -199 c0 -192 -1 -200 -20
-203 -30 -6 -37 -16 -30 -45 l7 -27 102 4 101 4 3 30 c3 27 0 31 -25 34 -28 3
-28 3 -28 78 0 72 1 75 24 78 37 6 104 -7 126 -24 15 -11 21 -31 26 -85 4 -43
12 -77 22 -86 13 -13 105 -38 113 -30 1 1 5 14 9 29 6 22 3 29 -11 35 -28 10
-34 23 -34 72 0 40 -31 111 -48 111 -4 0 -13 4 -21 9 -10 7 -5 16 23 42 49 45
57 91 26 155 -35 72 -78 87 -262 92 -127 4 -149 2 -154 -11z m313 -101 c28
-34 29 -65 2 -100 -19 -24 -27 -26 -90 -26 l-69 0 0 73 c0 41 3 77 8 81 4 4
34 6 66 4 49 -4 63 -9 83 -32z"/>
<path d="M3511 568 c-11 -31 -108 -309 -134 -387 -16 -45 -29 -66 -44 -72 -16
-6 -23 -17 -23 -34 0 -24 2 -25 75 -26 41 -1 81 -2 88 -3 7 -1 13 13 15 32 3
27 0 32 -17 32 -25 0 -25 -2 -6 44 l15 36 89 0 89 0 11 -31 c14 -42 14 -49 -4
-49 -17 0 -21 -55 -5 -65 5 -3 43 -3 85 1 74 7 75 7 75 35 0 19 -5 29 -14 29
-21 0 -19 -3 -101 233 -40 116 -76 220 -80 230 -5 13 -19 17 -56 17 -42 0 -51
-3 -58 -22z m87 -175 c12 -38 24 -80 27 -95 l7 -28 -67 0 c-50 0 -66 3 -62 13
2 6 17 49 32 95 16 45 32 82 36 82 4 0 16 -30 27 -67z"/>
<path d="M3870 556 c0 -30 3 -35 28 -38 l27 -3 3 -189 c3 -196 -1 -216 -39
-216 -14 0 -19 -7 -19 -30 l0 -30 104 0 c103 0 104 0 109 26 3 16 0 27 -9 30
-8 2 -21 6 -29 9 -13 4 -15 19 -13 82 l3 77 93 -3 92 -2 0 40 0 41 -95 0 -95
0 0 80 0 81 93 -3 92 -3 3 -32 c3 -30 6 -33 38 -33 l34 0 0 75 0 75 -210 0
-210 0 0 -34z"/>
<path d="M4340 520 l0 -70 40 0 c38 0 40 2 40 31 l0 30 53 -3 52 -3 0 -195 0
-195 -27 -3 c-24 -3 -28 -8 -28 -33 l0 -29 111 0 110 0 -3 28 c-2 21 -9 28
-31 30 l-27 3 2 197 3 197 50 0 c47 0 50 -2 53 -27 3 -24 8 -28 37 -28 l33 0
4 66 c1 36 1 68 -1 70 -2 2 -109 4 -238 4 l-233 0 0 -70z"/>
</g>
</svg>
